<svg width="13" height="18" viewBox="0 0 13 18" fill="none" xmlns="http://www.w3.org/2000/svg">
<path d="M1 7.17222H0.95V7.22222V9V9.05H1H1.83889V10.7278H1H0.95V10.7778V12.5556V12.6056H1H1.83889V17V17.05H1.88889H3.66667H3.71667V17V12.6056H9H9.05V12.5556V10.7778V10.7278H9H3.71667V9.05H8.55556C10.8054 9.05 12.6056 7.24984 12.6056 5C12.6056 2.75016 10.8054 0.95 8.55556 0.95H1.88889H1.83889V1V7.17222H1ZM3.71667 7.17222V2.82778H8.55556C9.13167 2.82778 9.68418 3.05664 10.0915 3.46401C10.4989 3.87138 10.7278 4.42389 10.7278 5C10.7278 5.57611 10.4989 6.12862 10.0915 6.53599C9.68418 6.94336 9.13167 7.17222 8.55556 7.17222H3.71667Z" fill="white" stroke="white" stroke-width="0.1"/>
</svg>
